<svg xmlns="http://www.w3.org/2000/svg" viewBox="0 0 784 539"><defs><style>.cls-1{fill:#487d85;}.cls-2{fill:none;}.cls-3{fill:#c28e34;}.cls-4{fill:#d4c081;}.cls-5{fill:#fff;}</style></defs><title>logo</title><g id="Layer_2" data-name="Layer 2"><path class="cls-1" d="M134.73,83a122.4,122.4,0,0,0-13.91-7.18,126.65,126.65,0,0,0-13.58-5,49,49,0,0,0-14.7-2.36,20.41,20.41,0,0,0-9.31,1.8,6.28,6.28,0,0,0-3.48,6.06,7,7,0,0,0,2,5.16,19.12,19.12,0,0,0,5.83,3.7,72.32,72.32,0,0,0,9.31,3.25q5.49,1.57,12.45,3.82a163.34,163.34,0,0,1,19.86,7.4,61.69,61.69,0,0,1,15.15,9.54A36.76,36.76,0,0,1,154,122.48q3.37,7.86,3.37,19.07,0,14.36-5.27,24.12a43.26,43.26,0,0,1-13.91,15.59,58.67,58.67,0,0,1-19.52,8.42,94.72,94.72,0,0,1-21.88,2.58,124.19,124.19,0,0,1-18-1.34,155.1,155.1,0,0,1-18.29-3.82,159.68,159.68,0,0,1-17.5-5.83,111.69,111.69,0,0,1-15.6-7.63l18.85-38.37A131.55,131.55,0,0,0,62.69,144,115.65,115.65,0,0,0,79,150.08a64.78,64.78,0,0,0,18.51,2.69q7.18,0,10-1.91a5.84,5.84,0,0,0,2.81-5,7.22,7.22,0,0,0-2.81-5.72,25.77,25.77,0,0,0-7.74-4.15q-4.94-1.79-11.33-3.59t-13.58-4.27a116.81,116.81,0,0,1-18.18-7.74,49.18,49.18,0,0,1-12.57-9.43,33.63,33.63,0,0,1-7.29-12,46.83,46.83,0,0,1-2.36-15.49,53.52,53.52,0,0,1,4.82-23.34A47.94,47.94,0,0,1,52.37,43.26a58.73,58.73,0,0,1,19-10.21,72.26,72.26,0,0,1,22.55-3.48,85.57,85.57,0,0,1,17.05,1.68,136.72,136.72,0,0,1,16,4.26,154.81,154.81,0,0,1,14.47,5.61q6.73,3,12.12,5.72Z"/><path class="cls-1" d="M308.64,69.07H262.86V190.25H219.1V69.07h-46V30.92H308.64Z"/><path class="cls-1" d="M359.13,30.92h39.94l55.2,159.33H409.84l-9.65-31.19H357.78l-9.42,31.19H303.7Zm34.11,99L379.1,80.51l-14.81,49.37Z"/><path class="cls-1" d="M475.36,190.25V30.92h73.15a48.43,48.43,0,0,1,21.54,4.82A55.94,55.94,0,0,1,587,48.31,58.73,58.73,0,0,1,598.11,66a53.2,53.2,0,0,1,4,20.08A56.71,56.71,0,0,1,596.09,112a52.82,52.82,0,0,1-16.83,19.64l33.66,58.57H563.55L535.5,141.33H519.12v48.92Zm43.76-87.07h27.6q4,0,7.52-4.49t3.48-12.57q0-8.3-4-12.68t-8.08-4.38H519.12Z"/><path class="cls-1" d="M756.54,69.07H710.76V190.25H667V69.07H621V30.92H756.54Z"/><path class="cls-1" d="M43.73,403.43V244.1H112.4a48.42,48.42,0,0,1,21.54,4.82,55.94,55.94,0,0,1,16.94,12.57A58.73,58.73,0,0,1,162,279.22a53.2,53.2,0,0,1,4,20.08,58.42,58.42,0,0,1-14.47,38.26A50.75,50.75,0,0,1,135,349.91a49.62,49.62,0,0,1-21.43,4.6h-26v48.92Zm43.76-87.07H110.6q4,0,7.52-3.7t3.48-13.35q0-9.87-4-13.46t-8.08-3.59h-22Z"/><path class="cls-2" d="M263.19,404.77a76.64,76.64,0,0,1-33-7,81.55,81.55,0,0,1-25.36-18.29,82.81,82.81,0,0,1-16.38-25.92,80.21,80.21,0,0,1-5.83-30.07,78.27,78.27,0,0,1,6.06-30.29,80.5,80.5,0,0,1,16.94-25.69,82.59,82.59,0,0,1,25.81-17.73,79.66,79.66,0,0,1,32.65-6.62,76.65,76.65,0,0,1,33,7,80.79,80.79,0,0,1,25.36,18.4,82.61,82.61,0,0,1,16.27,26,81.09,81.09,0,0,1,5.72,29.84,77.39,77.39,0,0,1-6.06,30.18,81.71,81.71,0,0,1-16.83,25.58A82.75,82.75,0,0,1,295.84,398,78.51,78.51,0,0,1,263.19,404.77ZM227.07,324a54.15,54.15,0,0,0,2.24,15.6A40.68,40.68,0,0,0,236,352.94a33.91,33.91,0,0,0,11.33,9.43,38.39,38.39,0,0,0,32.65-.11,33.17,33.17,0,0,0,11.33-9.65A41.52,41.52,0,0,0,297.86,339,57.29,57.29,0,0,0,300,323.54a54.29,54.29,0,0,0-2.24-15.59,38.48,38.48,0,0,0-6.84-13.24,34.6,34.6,0,0,0-11.44-9.2,35,35,0,0,0-16-3.48,34.61,34.61,0,0,0-16.27,3.59,33.43,33.43,0,0,0-11.33,9.54,40.36,40.36,0,0,0-6.62,13.46A56,56,0,0,0,227.07,324Z"/><path class="cls-1" d="M370.91,403.43V244.1h43.76V403.43Z"/><path class="cls-1" d="M493.65,325.11v78.32H449.89V244.1H484l64,81v-81h43.76V403.43H556.93Z"/><path class="cls-1" d="M751,282.25H705.26V403.43H661.5V282.25h-46V244.1H751Z"/><path class="cls-3" d="M174.08,329.71c1.71,91.71,84.21,175.19,91.58,179.71V212.1C217.3,212.1,172.8,260.83,174.08,329.71Z"/><path class="cls-4" d="M265.66,212.1V509.43c7.38-4.52,89.87-88,91.58-179.71C358.53,260.83,314,212.1,265.66,212.1Z"/><circle class="cls-5" cx="265.66" cy="313.27" r="47.49"/></g></svg>